<svg width="122" height="68" viewBox="0 0 122 68" fill="none" xmlns="http://www.w3.org/2000/svg">
<path d="M61 24C61 19.5817 64.5817 16 69 16C73.4183 16 77 19.5817 77 24C77 28.4183 73.4183 32 69 32C64.5817 32 61 28.4183 61 24Z" fill="white"/>
<path d="M61 14V8V2C61 0.895431 61.8954 0 63 0H75C76.1046 0 77 0.895431 77 2V14C77 15.1046 76.1046 16 75 16H69H63C61.8954 16 61 15.1046 61 14Z" fill="white"/>
<path d="M61 8C61 12.4183 57.4183 16 53 16C48.5817 16 45 12.4183 45 8C45 3.58172 48.5817 0 53 0C57.4183 0 61 3.58172 61 8Z" fill="white"/>
<path d="M61 18V24V30C61 31.1046 60.1046 32 59 32H47C45.8954 32 45 31.1046 45 30V18C45 16.8954 45.8954 16 47 16H53H59C60.1046 16 61 16.8954 61 18Z" fill="white"/>
<path d="M3.44346 66.9998H0L5.24683 51.8011H9.38789L14.6273 66.9998H11.1838L7.37673 55.2742H7.25799L3.44346 66.9998ZM3.22825 61.0257H11.3619V63.5341H3.22825V61.0257Z" fill="white"/>
<path d="M20.2901 54.4504V51.8011H32.7727V54.4504H28.1195V66.9998H24.9432V54.4504H20.2901Z" fill="white"/>
<path d="M54.3708 59.4004C54.3708 61.0578 54.0566 62.4679 53.4283 63.6305C52.8049 64.7932 51.9539 65.6813 50.8753 66.2948C49.8017 66.9033 48.5945 67.2076 47.2538 67.2076C45.9031 67.2076 44.691 66.9009 43.6173 66.2874C42.5437 65.6739 41.6952 64.7858 41.0719 63.6231C40.4485 62.4605 40.1368 61.0529 40.1368 59.4004C40.1368 57.743 40.4485 56.333 41.0719 55.1703C41.6952 54.0076 42.5437 53.122 43.6173 52.5135C44.691 51.9 45.9031 51.5933 47.2538 51.5933C48.5945 51.5933 49.8017 51.9 50.8753 52.5135C51.9539 53.122 52.8049 54.0076 53.4283 55.1703C54.0566 56.333 54.3708 57.743 54.3708 59.4004ZM51.1128 59.4004C51.1128 58.3268 50.952 57.4214 50.6304 56.6842C50.3138 55.9471 49.866 55.388 49.2872 55.007C48.7083 54.6261 48.0305 54.4356 47.2538 54.4356C46.477 54.4356 45.7992 54.6261 45.2203 55.007C44.6415 55.388 44.1913 55.9471 43.8697 56.6842C43.553 57.4214 43.3947 58.3268 43.3947 59.4004C43.3947 60.474 43.553 61.3794 43.8697 62.1166C44.1913 62.8538 44.6415 63.4129 45.2203 63.7938C45.7992 64.1748 46.477 64.3653 47.2538 64.3653C48.0305 64.3653 48.7083 64.1748 49.2872 63.7938C49.866 63.4129 50.3138 62.8538 50.6304 62.1166C50.952 61.3794 51.1128 60.474 51.1128 59.4004Z" fill="white"/>
<path d="M63.0206 51.8011H66.9836L71.1692 62.0127H71.3473L75.5329 51.8011H79.4958V66.9998H76.3789V57.1073H76.2527L72.3194 66.9256H70.197L66.2637 57.0702H66.1375V66.9998H63.0206V51.8011Z" fill="white"/>
<path d="M97.8007 51.8011H101.014V61.6713C101.014 62.7796 100.749 63.7493 100.22 64.5805C99.6956 65.4117 98.9609 66.0598 98.0159 66.5248C97.0709 66.985 95.9701 67.215 94.7135 67.215C93.4518 67.215 92.3486 66.985 91.4036 66.5248C90.4586 66.0598 89.7239 65.4117 89.1995 64.5805C88.675 63.7493 88.4128 62.7796 88.4128 61.6713V51.8011H91.6262V61.3967C91.6262 61.9756 91.7524 62.4901 92.0047 62.9404C92.262 63.3906 92.6231 63.7443 93.0882 64.0016C93.5533 64.2589 94.095 64.3875 94.7135 64.3875C95.3368 64.3875 95.8786 64.2589 96.3387 64.0016C96.8038 63.7443 97.1625 63.3906 97.4148 62.9404C97.6721 62.4901 97.8007 61.9756 97.8007 61.3967V51.8011Z" fill="white"/>
<path d="M118.172 56.1722C118.113 55.5735 117.858 55.1085 117.408 54.777C116.958 54.4455 116.347 54.2798 115.575 54.2798C115.051 54.2798 114.608 54.354 114.247 54.5024C113.885 54.6459 113.608 54.8462 113.415 55.1035C113.227 55.3608 113.133 55.6527 113.133 55.9792C113.124 56.2513 113.18 56.4888 113.304 56.6917C113.433 56.8945 113.608 57.0702 113.831 57.2186C114.054 57.3621 114.311 57.4882 114.603 57.5971C114.895 57.701 115.206 57.79 115.538 57.8642L116.903 58.1908C117.566 58.3392 118.175 58.5371 118.729 58.7845C119.283 59.0318 119.763 59.3361 120.169 59.6973C120.574 60.0584 120.889 60.4839 121.111 60.9737C121.339 61.4635 121.455 62.0251 121.46 62.6584C121.455 63.5885 121.218 64.3949 120.748 65.0777C120.283 65.7555 119.61 66.2824 118.729 66.6584C117.853 67.0295 116.797 67.215 115.56 67.215C114.333 67.215 113.265 67.027 112.354 66.651C111.449 66.275 110.741 65.7184 110.232 64.9812C109.727 64.2391 109.462 63.3213 109.438 62.2279H112.547C112.582 62.7375 112.728 63.163 112.985 63.5044C113.247 63.8408 113.596 64.0956 114.031 64.2688C114.472 64.437 114.969 64.5211 115.523 64.5211C116.067 64.5211 116.54 64.4419 116.941 64.2836C117.346 64.1253 117.66 63.9051 117.883 63.6231C118.106 63.3411 118.217 63.0171 118.217 62.6509C118.217 62.3096 118.116 62.0226 117.913 61.7901C117.715 61.5575 117.423 61.3596 117.037 61.1964C116.656 61.0331 116.188 60.8847 115.634 60.7511L113.979 60.3355C112.698 60.0238 111.686 59.5365 110.944 58.8735C110.202 58.2106 109.833 57.3175 109.838 56.1944C109.833 55.2742 110.078 54.4702 110.573 53.7825C111.073 53.0948 111.758 52.558 112.629 52.1721C113.5 51.7862 114.489 51.5933 115.597 51.5933C116.725 51.5933 117.71 51.7862 118.551 52.1721C119.397 52.558 120.055 53.0948 120.525 53.7825C120.995 54.4702 121.237 55.2668 121.252 56.1722H118.172Z" fill="white"/>
</svg>
